PathFileType	4	(X/Y/Z)	C:\Users\°ÂÌØÂü\Desktop\20210112\bx_y_5_1802-Unnamed.trc
DataRate	CameraRate	NumFrames	NumMarkers	Units	OrigDataRate	OrigDataStartFrame	OrigNumFrames
50.00	50.00	       8	0	mm	50.00	419	       478
Frame#	Time	
		

419	8.360	-646.92786	193.11925	533.06317	-588.37665	91.17359	1439.44617	-683.91724	-75.25602	1559.65479	-654.83954	-77.68372	860.73254	-661.35809	132.60890	580.37036	-569.73950	195.77217	831.61353	-656.64587	283.23468	1548.87390				-683.82147	-55.57903	713.42542	-659.10309	13.26307	521.49066	-672.42212	52.90598	159.44431	-696.40594	234.74094	579.94470	-744.66516	244.61119	507.25839	-711.31677	76.56286	216.15343	-667.26013	-69.93976	160.39421	-676.52283	77.43089	583.94238	-707.37360	150.15459	214.02074	-625.82214	-81.84375	157.21135	-768.82361	220.45944	206.00658	-882.58575	296.13757	144.56622	-691.92694	240.60364	639.99414	-601.92798	15.59570	167.88666	-560.37610	-43.94595	161.61264	-673.95490	173.89284	155.40622	-594.09943	224.23399	172.26494	-666.00891	298.03473	161.64375	-629.71985	306.83154	162.11880	-561.53601	262.53879	165.51208	-528.19385	304.13553	146.19025	-718.64282	105.57329	1848.16785	-695.35181	-31.64524	617.06384	-590.17450	-17.92533	810.88202	-517.94366	-72.50517	142.38536	-793.90875	170.44093	185.17186	-767.09351	-2.69095	207.76015	-790.71765	60.48873	176.24086	-709.14191	-25.45090	569.87793	-761.84479	-31.10975	492.62137	-876.07397	-78.87447	141.15222	-617.79578	265.94388	882.46936	-792.62988	104.29662	1039.48938				-576.10004	198.06487	1073.54517	-607.90643	-28.33894	1060.05469	
420	8.380	-648.37915	193.18411	533.08392				-684.74121	-74.85512	1559.76025	-654.71533	-77.78053	860.87518	-662.91919	132.52635	580.69275	-570.25800	196.01215	831.62573	-657.77972	283.51636	1548.72729				-683.99774	-55.22607	713.34033	-659.33826	13.32299	521.52966	-672.42212	52.90598	159.44431	-698.05701	234.66933	579.71558	-745.65558	244.63965	507.46417	-711.13483	76.80173	216.30161	-667.22632	-69.95296	160.34746	-676.94012	77.54520	584.38361	-707.49829	149.97806	214.38083	-625.99463	-81.83498	157.47235	-768.95691	220.49323	205.89343	-882.68811	296.23941	144.60799	-693.35040	241.36264	640.24475	-602.06750	15.39223	167.86041	-560.70453	-44.11475	161.84224	-673.95490	173.89284	155.40622	-594.14008	224.18954	172.46297	-666.08435	297.95282	161.64978	-629.76447	306.89716	162.07828	-561.41583	262.67844	165.59201	-528.29700	304.66617	146.74078	-719.86481	106.07002	1848.01086	-695.07935	-32.07294	617.52777	-590.34857	-17.67074	810.95038	-517.65814	-72.31439	142.25323	-793.99023	170.50462	185.05573	-767.11334	-2.55486	207.40588	-790.84528	60.41436	176.27576	-708.72174	-25.69783	570.25433	-761.88605	-31.12098	492.56781	-875.97748	-78.88188	141.21204	-618.58771	265.98044	882.08942	-792.96832	103.99387	1039.22778				-576.62518	198.14499	1073.44299	-608.14978	-28.33900	1059.92737	
421	8.400	-649.66681	193.15382	533.62732				-685.41760	-74.45774	1559.70654	-654.83954	-77.68372	860.73254	-664.10474	132.73143	581.34351	-571.82330	196.34422	831.15485	-658.70728	283.71228	1548.52271				-684.18542	-55.11819	713.30945	-659.92291	13.25730	521.47321	-672.28619	52.78444	159.34267	-699.21100	235.08302	580.34650	-747.20660	244.90710	507.38980	-711.42194	76.46718	216.06474	-667.15405	-69.98462	160.50069	-677.84985	77.94862	584.64423	-707.67767	150.42632	214.49332	-625.89960	-81.74333	157.62384	-769.28375	220.47327	205.85730	-882.71808	296.22659	144.56442	-694.97137	240.71513	640.25995	-601.91327	15.43546	167.91486	-560.43976	-44.04294	161.75851	-674.22418	174.34518	155.30339	-594.22083	224.21262	172.53325	-666.09662	298.05008	161.55743	-629.83417	306.77792	162.02751	-561.58289	262.59354	165.48329	-528.09497	304.43414	146.44843	-720.65149	106.55695	1847.99438	-695.47278	-32.14087	617.63275	-590.61566	-17.55729	811.01355	-517.66119	-72.34287	142.36899	-794.09662	170.42297	185.12483	-766.98944	-2.68181	207.49913	-790.67365	60.32394	176.10719	-708.86292	-25.68449	570.33325	-762.36066	-31.04414	492.60132	-875.99298	-78.87768	141.19183	-619.39844	266.23956	881.89764	-793.44690	103.60676	1039.08142				-577.16022	198.30408	1073.27661	-607.47180	-28.28547	1059.91748	
422	8.420	-651.73480	193.32906	533.74615				-685.79224	-74.15230	1559.74268	-654.77618	-77.59169	860.78436	-665.99329	133.01752	581.02258	-572.38849	196.37418	831.06836	-659.57703	284.35007	1548.34009				-685.06934	-55.57091	713.92755	-660.59796	13.09930	521.33972	-672.42212	52.90598	159.44431	-701.02844	234.81845	579.97198	-748.44482	245.07523	507.40335	-711.66144	76.45854	216.30789	-667.33160	-70.06461	160.42557	-678.27722	77.69038	584.41833	-707.62866	150.60359	214.72360	-625.89819	-81.64761	157.39703	-769.37103	220.62344	205.94656	-882.60834	296.06894	144.52896	-696.43604	240.61176	640.27576	-602.00275	15.35556	167.87608	-560.74719	-44.07905	162.04274	-673.98474	174.20137	155.55043	-594.26111	224.40242	172.46846	-666.15997	298.21518	161.38962	-629.93652	307.09903	162.00165	-561.70477	262.78760	165.80214	-528.25757	304.34180	146.20367	-721.60236	107.39476	1848.13403	-695.56708	-32.24887	617.62549	-590.68292	-17.58522	811.06769	-517.66138	-72.19983	142.58182	-794.10510	170.55666	184.79619	-767.10004	-2.68965	207.55017	-790.84528	60.41436	176.27576	-709.12305	-26.43213	570.94659	-763.33484	-31.09422	492.48865	-875.97589	-78.81084	141.28232	-620.61505	265.99728	881.76819	-793.85779	103.51305	1039.10046				-577.48718	198.37727	1073.33386	-607.78320	-28.21240	1059.77185	
423	8.440	-652.63513	193.24487	534.11230	-591.28333	93.05057	1439.66882	-686.01904	-73.77190	1559.94446	-655.09778	-77.65671	860.77875	-668.03790	132.74945	581.34906	-573.16516	196.64792	831.03241	-660.34857	284.38480	1548.21313				-685.60590	-55.47352	714.01953	-661.14160	13.11284	521.47681	-672.47821	53.02024	159.66454	-702.72784	235.25050	580.49561	-750.17853	245.52280	507.40613	-711.89496	76.15832	216.39818	-667.24426	-70.04512	160.25684	-679.00824	77.73055	584.71808	-707.75647	150.35713	214.80673	-625.96295	-81.74223	157.53636	-769.36145	220.67995	205.90335	-882.53503	296.08496	144.58298	-698.08582	241.51888	640.75616	-602.07806	15.46706	167.95203	-560.65442	-44.09708	162.16235	-673.98474	174.20137	155.55043	-594.29126	224.71896	172.41679	-666.23334	298.29257	161.33148	-629.99200	307.08109	161.93217	-561.74463	262.79123	165.85782	-528.21149	304.33224	146.49052	-722.22852	107.80230	1848.16748	-695.98151	-32.77652	617.80798	-591.04071	-17.65271	811.16663	-517.81024	-72.53174	142.35040	-794.07489	170.60591	184.86868	-767.18958	-2.66412	207.39168	-790.84528	60.41436	176.27576	-710.06824	-26.44533	570.73682	-763.83118	-31.17170	492.31528	-876.13165	-78.85811	141.14114	-621.69116	266.13266	881.74207	-794.47491	103.00904	1039.18958				-578.26709	198.56674	1073.05212	-608.25751	-28.05174	1059.47168	
424	8.460	-654.86908	193.91435	534.59332	-591.43933	93.03813	1439.68713	-686.25745	-73.47110	1560.15674	-655.65845	-77.97397	860.80676	-669.38013	133.00089	581.58411	-574.49756	196.47119	830.51501	-661.45587	284.64499	1547.96240	-668.67548	261.33926	751.65765	-686.15637	-55.21066	713.43726	-661.64374	13.20908	521.45001	-672.46667	52.93854	159.72375	-704.48993	235.58565	580.41229	-751.86200	245.53242	507.51047	-711.89496	76.15832	216.39818	-667.31781	-70.15243	160.45959	-679.69763	77.75970	584.65765	-708.26251	150.70351	214.56839	-625.91296	-81.86349	157.55659	-769.55573	220.71863	205.75317	-882.42468	295.98312	144.60002	-700.08868	241.25255	641.03564	-602.08221	15.36644	168.01451	-560.74945	-44.12934	162.08134	-674.01959	174.32368	155.81134	-594.41223	224.50101	172.48804	-666.28699	298.30493	161.27325	-629.89758	307.15314	161.87617	-561.84326	262.93011	165.91351	-528.09497	304.43414	146.44843	-722.75726	108.10030	1848.13342	-697.14996	-32.14613	617.88312	-591.78778	-17.57442	811.29358	-517.72723	-72.48470	142.19098	-794.14923	170.54124	184.74271	-767.54596	-2.72233	207.54265	-790.84528	60.41436	176.27576	-711.63049	-26.48810	570.60425	-764.17688	-31.39545	492.25665	-875.93195	-78.89499	141.20357	-622.26672	266.24326	881.75818	-794.81366	103.04665	1039.33911				-579.01398	198.95587	1072.83093	-608.74200	-27.85171	1059.63232	
425	8.480	-656.40405	193.85907	534.64215	-591.44904	93.06187	1439.82886	-686.39502	-73.33012	1560.35962	-656.32178	-78.86082	861.67419	-671.25763	133.45212	581.27942	-575.46570	196.61530	830.04523	-662.29205	285.02975	1547.66919	-669.89258	260.96930	751.21686	-686.38226	-55.24919	713.52625	-662.60522	12.95245	521.32758	-672.46667	52.93854	159.72375	-706.26709	235.42255	580.63116	-753.04047	245.70958	507.35977	-712.21924	76.32439	216.41212	-667.30365	-70.09998	160.37822	-680.93488	77.05165	584.49921	-708.31689	150.56065	214.81410	-625.81494	-81.80299	157.32106	-769.72168	220.71581	205.86099	-882.57391	296.10358	144.60480	-701.34351	241.37453	641.06464	-602.01666	15.37098	168.01637	-560.83020	-43.96671	161.72028	-674.07251	174.34743	155.75229	-594.41467	224.81625	172.70764	-666.21271	298.35779	161.24126	-629.87909	306.99664	162.02539	-561.93188	262.90109	166.09013	-528.21149	304.33224	146.49052	-723.26624	108.84218	1848.25000	-698.66815	-32.08296	617.39917	-592.49133	-17.30313	811.14026	-517.49646	-72.72040	142.85522	-794.21539	170.62865	184.70587	-767.55157	-2.89005	207.46881	-790.74475	60.37040	176.00630	-711.95935	-26.40342	570.47052	-764.47467	-32.03272	492.56488	-876.13904	-78.89705	141.10681	-623.11786	266.37848	881.59198	-795.67224	103.06731	1039.26672				-579.83698	198.60052	1072.45886	-609.41083	-27.64533	1059.66577	
426	8.500	-657.65045	194.05219	534.91833	-591.70715	93.17934	1439.96497	-686.20868	-73.16670	1560.37476	-656.75342	-78.62257	861.48639	-673.66919	133.55463	580.89813	-576.79736	196.24199	829.44177	-663.39783	284.82755	1547.50073	-671.16095	261.35596	751.35590	-687.81805	-55.80464	713.65326	-663.23907	12.83108	521.70905	-672.61224	53.19005	159.68526	-707.72559	236.02258	580.62512	-754.63116	246.14006	507.53372	-712.18384	76.08716	216.52803	-667.33362	-70.19532	160.22627	-681.84229	77.12155	584.42566	-708.49805	150.70160	214.91066	-625.87354	-81.85944	157.35568	-769.76758	220.62296	205.61169	-882.62158	296.14899	144.58987	-703.10016	241.53447	640.88379	-602.18500	15.26595	168.07454	-561.04041	-43.94201	161.88336	-674.07251	174.34743	155.75229	-594.47870	224.95313	172.59381	-666.34338	298.30463	161.20161	-629.95862	307.12701	162.07497	-562.01923	263.03738	165.95428	-528.17468	304.20193	146.54121	-723.72852	109.24662	1848.31567	-699.45264	-32.08549	617.22656	-593.35254	-17.19435	811.14575	-517.26349	-71.87622	142.72957	-794.30463	170.68686	184.58992	-768.33356	-2.80948	206.72983	-790.87646	60.18071	175.95541	-713.02417	-26.48860	570.29095	-765.27075	-32.07884	492.34644	-875.99457	-78.94872	141.12155	-624.13489	266.18237	881.47974	-796.13757	102.67365	1039.48462				-580.08508	198.62041	1072.47375	-609.70618	-27.71627	1059.44751	
